<svg width="56" height="65" viewBox="0 0 56 65" fill="none" xmlns="http://www.w3.org/2000/svg">
<path d="M50.2511 53.6561C50.3969 53.302 50.5011 53.0207 50.5636 52.8124C52.6678 46.1665 52.7615 38.9061 50.8448 31.0311L50.5948 30.0936L50.3136 29.0936C50.1261 28.3645 49.9282 27.7186 49.7198 27.1561C49.2198 25.6978 48.6365 24.4999 47.9698 23.5624C46.8448 21.9582 45.6886 21.8853 44.5011 23.3436C44.0636 23.8853 43.6469 24.604 43.2511 25.4999C42.9386 26.2082 42.6886 26.9061 42.5011 27.5936C40.7303 34.3436 40.2407 41.4478 41.0323 48.9061C41.324 51.6561 41.6678 53.8124 42.0636 55.3749C42.1053 55.5207 42.1469 55.7082 42.1886 55.9374L42.3448 56.5936C42.4698 57.1561 42.5948 57.6249 42.7198 57.9999C43.074 59.1249 43.5011 59.8853 44.0011 60.2811C45.1678 61.2395 46.5428 60.4686 48.1261 57.9686C48.6678 57.1145 49.199 56.104 49.7198 54.9374C49.9282 54.4999 50.1053 54.0728 50.2511 53.6561ZM49.5011 20.1874C51.3136 22.229 52.8136 25.552 54.0011 30.1561C55.3136 35.4478 55.8136 40.4999 55.5011 45.3124C55.1261 51.0832 53.5948 55.8645 50.9073 59.6561C50.4073 60.3436 49.8553 60.9895 49.2511 61.5936C48.5428 62.302 47.8344 62.854 47.1261 63.2499C45.2928 64.2915 43.6782 64.2395 42.2823 63.0936C40.8448 61.927 39.7719 60.0415 39.0636 57.4374C38.7928 56.479 38.5636 55.354 38.3761 54.0624C38.3136 53.5832 38.2407 53.0311 38.1573 52.4061L38.0636 51.6249L37.9698 50.8749C37.2823 45.3332 37.2928 39.6145 38.0011 33.7186L38.0948 32.9999L38.1886 32.2811C38.2511 31.7186 38.3136 31.2082 38.3761 30.7499C38.5428 29.5832 38.7407 28.5415 38.9698 27.6249C39.5323 25.2499 40.324 23.3853 41.3448 22.0311C42.4698 20.5728 43.7303 19.5936 45.1261 19.0936C46.8344 18.4895 48.2928 18.854 49.5011 20.1874Z" fill="#3A0300"/>
<path d="M32.9225 43.8749V43.9374C33.0891 45.6249 33.1725 47.2812 33.1725 48.9062C33.1516 51.052 32.985 53 32.6725 54.75C31.8183 59.4166 29.9329 62.3437 27.0162 63.5312C23.7871 64.8645 21.0996 63.375 18.9537 59.0625C18.1621 57.5 17.5058 55.6666 16.985 53.5625C16.5683 51.8958 16.3183 50.4166 16.235 49.1249C15.86 43.9374 15.9225 39.0104 16.4225 34.3437C16.8808 29.8854 17.9225 26.2083 19.5475 23.3124C20.36 21.8541 21.3391 20.7916 22.485 20.1249C23.8391 19.3124 25.2766 19.1979 26.7975 19.7812C28.1308 20.302 29.2662 21.3124 30.2037 22.8124C30.9121 23.9166 31.5162 25.3124 32.0162 26.9999C32.1621 27.4791 32.0996 27.9062 31.8287 28.2812C31.5996 28.6145 31.2454 28.8437 30.7662 28.9687C30.3079 29.0937 29.8808 29.0624 29.485 28.8749C29.0475 28.6874 28.7558 28.3541 28.61 27.8749C28.5475 27.6874 28.4746 27.4583 28.3912 27.1874C28.2662 26.8749 28.1412 26.5624 28.0162 26.2499C27.6412 25.4166 27.2662 24.7187 26.8912 24.1562C25.7871 22.5312 24.7558 22.2291 23.7975 23.2499C23.1308 23.9583 22.5579 24.8854 22.0787 26.0312C21.9121 26.4687 21.7246 26.9791 21.5162 27.5624L21.0475 29.0937C19.5683 33.802 19.1204 40.177 19.7037 48.2187C20.0162 52.552 20.9954 55.927 22.6412 58.3437C23.3079 59.3645 23.9433 60.0208 24.5475 60.3125C25.3808 60.75 26.1308 60.4895 26.7975 59.5312C29.0891 56.2604 29.985 51.4374 29.485 45.0624C28.0058 45.2499 26.6308 45.3437 25.36 45.3437C24.8183 45.3437 24.3912 45.177 24.0787 44.8437C23.8079 44.5312 23.6725 44.1562 23.6725 43.7187C23.6725 43.2812 23.8079 42.9062 24.0787 42.5937C24.3912 42.2395 24.8183 42.0624 25.36 42.0624C27.1516 42.0416 28.9641 41.8854 30.7975 41.5937C31.5475 41.4687 32.1516 41.6874 32.61 42.2499C33.0266 42.7708 33.1308 43.3124 32.9225 43.8749Z" fill="#3A0300"/>
<path d="M11.1874 60.25L13.6562 60.1875C14.1562 60.1875 14.552 60.3542 14.8437 60.6875C15.1145 61 15.2499 61.375 15.2499 61.8125C15.2499 62.2708 15.1145 62.6562 14.8437 62.9688C14.552 63.3021 14.1562 63.4792 13.6562 63.5L10.8437 63.5312L8.03116 63.625C5.73949 63.6875 3.85408 63.6979 2.37491 63.6562C2.02074 63.6562 1.68741 63.5417 1.37491 63.3125C1.04158 63.0833 0.843661 62.7917 0.781161 62.4375C0.572828 61 0.479078 59.2604 0.499911 57.2188L0.593661 54.625L0.656161 52V49.4375L0.624911 46.9062C0.604078 44.7396 0.604078 43.0417 0.624911 41.8125L0.749911 36.625L0.874911 31.4375C0.937411 27.4375 0.926995 23.9792 0.843661 21.0625C0.822828 20.5 1.01033 20.0729 1.40616 19.7812C1.78116 19.5104 2.20824 19.4062 2.68741 19.4688C2.83324 19.4479 2.97908 19.4375 3.12491 19.4375H8.34366C10.302 19.4375 12.0416 19.4688 13.5624 19.5312C14.0624 19.5521 14.4582 19.7396 14.7499 20.0938C14.9999 20.4271 15.1249 20.8125 15.1249 21.25C15.1249 21.6875 14.9999 22.0625 14.7499 22.375C14.4582 22.7083 14.0624 22.8646 13.5624 22.8438C12.1666 22.7812 10.6041 22.7396 8.87491 22.7188H4.18741C4.22908 25.0521 4.21866 27.75 4.15616 30.8125L4.09366 34.875L3.99991 38.9062C5.02074 38.9688 6.26033 38.9896 7.71866 38.9688H9.56241L11.4062 38.9375C11.9062 38.9375 12.3124 39.1042 12.6249 39.4375C12.8749 39.75 12.9999 40.1354 12.9999 40.5938C12.9999 41.0312 12.8749 41.4062 12.6249 41.7188C12.3124 42.0521 11.9062 42.2188 11.4062 42.2188L9.53116 42.25L7.68741 42.2812C6.20824 42.2812 4.95824 42.2604 3.93741 42.2188V46.5625L3.96866 50.9375C3.94783 51.5833 3.91658 52.375 3.87491 53.3125L3.78116 55.6562C3.69783 57.5729 3.71866 59.1458 3.84366 60.375C5.05199 60.3958 6.68741 60.375 8.74991 60.3125L11.1874 60.25Z" fill="#3A0300"/>
<path d="M39.4236 2.09375V7.01562C39.4236 7.22656 39.322 7.33203 39.1189 7.33203H37.197V12.5117C37.197 12.957 37.3962 13.1797 37.7947 13.1797C38.1931 13.1797 38.3923 12.957 38.3923 12.5117V8.79688C38.3923 8.58594 38.4978 8.48047 38.7087 8.48047H39.1189C39.322 8.48047 39.4236 8.58594 39.4236 8.79688V12.3711C39.4236 13.5664 38.8728 14.1641 37.7712 14.1641C36.6541 14.1641 36.0955 13.5664 36.0955 12.3711V2.09375C36.0955 0.898438 36.6541 0.300781 37.7712 0.300781C38.8728 0.300781 39.4236 0.898438 39.4236 2.09375ZM37.197 1.95312V6.39453H38.3923V1.95312C38.3923 1.50781 38.1931 1.28516 37.7947 1.28516C37.3962 1.28516 37.197 1.50781 37.197 1.95312Z" fill="#3A0300"/>
<path d="M29.953 14H29.1561C28.9764 14 28.8748 13.9023 28.8514 13.707L27.6912 0.804688C27.6834 0.710938 27.7108 0.632812 27.7733 0.570312C27.8358 0.5 27.9139 0.464844 28.0076 0.464844H28.5116C28.6991 0.464844 28.8045 0.5625 28.828 0.757812L29.3553 6.62891C29.4334 7.64453 29.5194 9.22266 29.6131 11.3633C29.6444 10.7852 29.6756 10.2266 29.7069 9.6875C29.7381 9.14844 29.7616 8.70312 29.7772 8.35156C29.8006 8 29.8201 7.69141 29.8358 7.42578C29.8514 7.15234 29.8631 6.95312 29.8709 6.82812L29.8826 6.62891L30.41 0.757812C30.4334 0.5625 30.535 0.464844 30.7147 0.464844H31.1014C31.1951 0.464844 31.2733 0.5 31.3358 0.570312C31.3983 0.632812 31.4256 0.710938 31.4178 0.804688L30.2694 13.707C30.2459 13.9023 30.1405 14 29.953 14Z" fill="#3A0300"/>
<path d="M20.7637 14.1641C19.9668 14.1641 19.5684 13.6445 19.5684 12.6055V9.48828C19.5684 8.93359 19.6387 8.4375 19.7793 8C19.8809 7.71875 19.9902 7.48438 20.1074 7.29688C20.2246 7.10938 20.3223 6.97266 20.4004 6.88672C20.4863 6.80078 20.6543 6.63672 20.9043 6.39453C21.1387 6.16016 21.3027 5.98828 21.3965 5.87891C21.498 5.76172 21.5957 5.58594 21.6895 5.35156C21.7832 5.10938 21.8418 4.82422 21.8652 4.49609V1.95312C21.8652 1.50781 21.6816 1.28516 21.3145 1.28516C20.9316 1.28516 20.7402 1.50781 20.7402 1.95312V5.29297C20.7402 5.49609 20.6348 5.59766 20.4238 5.59766H20.0254C19.8145 5.59766 19.709 5.49609 19.709 5.29297V2.09375C19.709 0.898438 20.252 0.300781 21.3379 0.300781C22.4316 0.300781 22.9785 0.898438 22.9785 2.09375V12.1484C22.9785 12.7891 23.002 13.293 23.0488 13.6602C23.0723 13.8867 22.9746 14 22.7559 14H22.3223C22.1504 14 22.041 13.9219 21.9941 13.7656C21.9629 13.7344 21.9355 13.6055 21.9121 13.3789C21.7012 13.9023 21.3184 14.1641 20.7637 14.1641ZM21.2207 13.1797C21.4082 13.1797 21.5605 13.1133 21.6777 12.9805C21.8027 12.8477 21.8652 12.6758 21.8652 12.4648V6.69922L21.5137 7.13281L21.1035 7.63672C20.9941 7.79297 20.8926 8.03125 20.7988 8.35156C20.7129 8.66406 20.6699 9.00391 20.6699 9.37109V12.5117C20.6699 12.957 20.8535 13.1797 21.2207 13.1797Z" fill="#3A0300"/>
<path d="M13.0859 14.1641C11.9688 14.1641 11.4102 13.5664 11.4102 12.3711V2.09375C11.4102 0.898438 11.9688 0.300781 13.0859 0.300781C14.1875 0.300781 14.7383 0.898438 14.7383 2.09375V5.48047C14.7383 5.69141 14.6367 5.79688 14.4336 5.79688H14.0234C13.8125 5.79688 13.707 5.69141 13.707 5.48047V1.95312C13.707 1.50781 13.5078 1.28516 13.1094 1.28516C12.7109 1.28516 12.5117 1.50781 12.5117 1.95312V12.5117C12.5117 12.957 12.7109 13.1797 13.1094 13.1797C13.5078 13.1797 13.707 12.957 13.707 12.5117V8.73828C13.707 8.53516 13.8125 8.43359 14.0234 8.43359H14.4336C14.6367 8.43359 14.7383 8.53516 14.7383 8.73828V12.3711C14.7383 13.5664 14.1875 14.1641 13.0859 14.1641Z" fill="#3A0300"/>
</svg>
